<?xml version="1.0" encoding="utf-8"?>
<!-- Generator: Adobe Illustrator 20.1.0, SVG Export Plug-In . SVG Version: 6.00 Build 0)  -->
<svg version="1.1" id="Layer_1" xmlns="http://www.w3.org/2000/svg" xmlns:xlink="http://www.w3.org/1999/xlink" x="0px" y="0px"
	 viewBox="0 0 380.9 119.8" style="enable-background:new 0 0 380.9 119.8;" xml:space="preserve">
<style type="text/css">
	.st0{fill:#F4C97D;}
	.st1{fill:#F7BA4D;}
	.st2{fill:#EEAB23;}
	.st3{fill:#FFFFFF;}
	.st4{fill:#EDD298;}
	.st5{fill:#F8DFAB;}
	.st6{fill:#EDD298;stroke:#EDD298;stroke-width:3;stroke-miterlimit:10;}
	.st7{fill:#F8DFAB;stroke:#EDD298;stroke-width:3;stroke-miterlimit:10;}
	.st8{fill:#F9B014;}
	.st9{fill:#E0E0E0;}
</style>
<path class="st0" d="M74.2,33.5c0,0-0.1,0-0.2-0.1c0,0,0,0,0,0c-0.6-0.3-1.4-0.7-2.4-1.1c-0.6-0.3-1.3-0.5-2.2-0.8
	c-0.3-0.1-0.5-0.2-0.8-0.2c-1.5-0.4-3.4-0.9-5.6-1.3c-3.5-0.6-8-1.2-13.5-1.5c0,0-0.1,0-0.2,0c-1.3-0.1-2.7-0.1-4.2-0.2
	c-0.8,0-1.5,0-2.3,0c-0.3,0-0.6,0-0.9,0c-0.9,0-1.9,0-2.7,0c0,0-0.1,0-0.1,0c-0.5,0-0.9,0-1.4,0c-0.9,0-1.8,0-2.6,0.1
	c-0.8,0-1.6,0-2.4,0.1c-0.6,0-1.3,0.1-1.9,0.1c-0.1,0-0.1,0-0.2,0c-0.1,0-0.2,0-0.3,0c-0.9,0.1-1.8,0.1-2.6,0.2
	c-0.8,0.1-1.6,0.1-2.4,0.2c-5.4,0.6-9.4,1.4-12.2,2.3c-0.1,0-0.2,0.1-0.3,0.1c-2,0.6-3.3,1.2-4.3,1.8c0,0,0,0-0.1,0
	c-1,0.6-1.4,1.1-1.4,1.4c0,0.5-0.1,9.6-0.2,21.4c2.5,2.5,10.9,8.3,35.9,7.4c6.3-0.3,11.4-0.8,15.6-1.6c9.1-1.6,14-4,16.7-6v6
	c-0.1,0-0.1-0.1-0.2-0.1c-0.6-0.4-1-0.9-1-0.9s-2.2,4-16.3,5.7c-4.1,0.5-9.2,0.8-15.6,0.8c-28.2-0.1-34.1-6.2-34.1-6.2l-1.1,1.2v0
	c-0.1,8-0.1,16.6-0.2,24.5v0c3.2,2.5,12.2,6.9,35.2,6.1c3.8-0.1,7.1-0.4,10.1-0.7v0c14.3-1.5,20.5-4.8,23.2-7v6.4
	c-0.5-0.1-1-0.3-1.2-0.4c-0.6-0.4-1-0.8-1-0.8s-2.8,4.5-22.1,5.7c-2.9,0.2-6.2,0.3-9.8,0.2c-28.2-0.1-34.1-5.6-34.1-5.6L6.6,91
	c-0.1,11.9-0.2,20.9-0.2,20.9s6.8,9.6,37.9,7.6c1.2-0.1,2.3-0.2,3.4-0.2c14.4-1.1,21.3-3.1,24.5-4.7c0,0,0,0,0,0
	c2.9-1.4,2.9-2.6,2.9-2.7V34.2C75.2,34.2,74.9,33.9,74.2,33.5z M10.9,48.3c-0.7,0-1.3-0.6-1.3-1.3c0-0.7,0.6-1.3,1.3-1.3
	c0.7,0,1.3,0.6,1.3,1.3C12.2,47.7,11.6,48.3,10.9,48.3z M40.3,39.1c1.2-1.7,1.6-3.8,1.2-5.7c0.9-0.5,1.6-1.2,2.2-1.9
	c0,0,0.1,0,0.1,0.1c-0.7,0.7-2.9,3.3,0.5,7.5H40.3z M11.9,77.2c-0.7,0-1.3-0.6-1.3-1.3c0-0.7,0.6-1.3,1.3-1.3c0.7,0,1.3,0.6,1.3,1.3
	C13.2,76.6,12.6,77.2,11.9,77.2z M12.1,104.9c-0.7,0-1.3-0.6-1.3-1.3c0-0.7,0.6-1.3,1.3-1.3c0.7,0,1.3,0.6,1.3,1.3
	C13.4,104.3,12.8,104.9,12.1,104.9z"/>
<path class="st1" d="M75.1,34.2v21.6c-2.6,2-7.5,4.4-16.7,6C61.3,45.3,62.8,31.4,63,30c0-0.1,0-0.1,0-0.1c5.6,0.8,9.2,2.5,11,3.5
	c0.1,0.1,0.2,0.1,0.2,0.1C74.8,33.9,75.1,34.2,75.1,34.2z"/>
<path class="st1" d="M75.1,61.8v23.4c-2.7,2.2-8.9,5.5-23.2,7C54.1,84,56,75,57.6,66.5c14.1-1.7,16.3-5.7,16.3-5.7s0.4,0.5,1,0.9
	C75,61.7,75,61.8,75.1,61.8z"/>
<path class="st1" d="M73.9,91.2c0.2,0.1,0.7,0.3,1.2,0.4v20.3c-0.6,1-1.6,1.9-2.8,2.7c0,0,0,0,0,0c-5.7,3.6-16.9,4.5-24.5,4.7
	c-4.6,0.1-7.9-0.1-7.9-0.1c4.2-4,7.9-12.7,11-23.1c19.3-1.1,22.1-5.7,22.1-5.7S73.3,90.8,73.9,91.2z"/>
<path class="st2" d="M9.6,34.3L9.6,34.3z"/>
<path class="st3" d="M71.9,34.9c0,0.4-0.4,0.8-1.1,1.1h0c-0.7,0.4-1.8,0.7-3.1,1c0,0,0,0,0,0c-0.2,0.1-0.5,0.1-0.8,0.2
	c-1.4,0.3-3,0.6-4.9,0.8c-4.7,0.6-10.8,1.1-17.6,1.1h-0.1c-3.4-4.2-1.2-6.8-0.5-7.5c0,0-0.1,0-0.1-0.1c-0.5,0.7-1.2,1.4-2.2,1.9
	c0.4,2,0,4-1.2,5.7H40c-11.4,0-21.3-0.9-26.6-2.2c-0.1,0-0.2,0-0.2-0.1c-0.3-0.1-0.6-0.2-0.9-0.2c-0.1,0-0.1,0-0.2-0.1
	c-1.7-0.5-2.7-1.1-2.7-1.7c0-0.2,0-0.3,0.2-0.5v0c0.4-0.6,1.8-1.2,3.8-1.6c0.1,0,0.1,0,0.2-0.1c0,0,0,0,0.1,0
	c3-0.7,7.4-1.3,12.5-1.7h0c1.2-0.1,2.3-0.2,3.6-0.2c0.4,0,0.8,0,1.1,0c0.2,0,0.3,0,0.5,0c0.2,0,0.4,0,0.6,0c0.2,0,0.4,0,0.6,0
	c0.8,0,1.5,0,2.3-0.1c0.6,0,1.3,0,1.9,0h4.8c0.9,0,1.8,0,2.6,0c2.4,0,4.7,0.1,6.9,0.2c0.1,0,0.3,0,0.5,0c2.7,0.1,5.2,0.3,7.5,0.6
	c0,0,0.1,0,0.2,0c0.3,0,0.6,0.1,0.9,0.1c0.1,0,0.1,0,0.2,0c0.8,0.1,1.7,0.2,2.4,0.3c2.3,0.3,4.2,0.7,5.6,1.1c0.1,0,0.2,0.1,0.3,0.1
	c0.6,0.2,1.2,0.4,1.6,0.6l0,0c0.1,0,0.2,0.1,0.3,0.1C71.6,34.2,71.9,34.5,71.9,34.9z"/>
<path class="st3" d="M75.2,55.8v6.1c0,0-0.1,0-0.1,0v-6C75.1,55.8,75.2,55.8,75.2,55.8z"/>
<path class="st3" d="M75.2,85.1v6.5c0,0-0.1,0-0.1,0v-6.4C75.1,85.2,75.2,85.1,75.2,85.1z"/>
<g>
	<path class="st4" d="M8.5,25.7c0,0-10.8-3.7-4.3-12.5c0,0,6.6-6.2,12.3,1.4c0,0,1.5-7.2,8.2-6.9c6.6,0.3,9.8,9,3.6,13.7
		c0,0,10.6,4.4,5.4,12s-12.3,0-12.3,0s-5.7,5.3-10.8,1.8S8.5,25.7,8.5,25.7z"/>
	<path class="st5" d="M2.4,16.9c0,0,7.8-6.9,14.1,0.2c0,0,5.2-9.3,9.4-6.9s8.8,4.3,2.3,11.2c0,0,7.9,0.8,3.2,10.8
		s-10.3,1.1-10.3,1.1s-6,6.7-11.5,1.1s-1.3-8.9-1.3-8.9S1,24.3,2.4,16.9z"/>
</g>
<g>
	<path class="st4" d="M70.8,36C70.8,36,70.8,36.1,70.8,36c-0.7,0.5-1.8,0.8-3.1,1.1c-0.1,0-0.2,0-0.4,0.1h0c-0.5,0.1-1,0.2-1.6,0.3
		c-1.1,0.2-2.3,0.4-3.7,0.6c-4.7,0.6-10.8,1.1-17.6,1.1c0,0,0-0.1-0.1-0.1c-2.1-3.4-0.2-7.4-0.2-7.4s-0.1,0-0.3-0.1
		c0,0-0.1,0-0.1-0.1c-0.1,0-0.3-0.1-0.4-0.1c-0.4-0.2-0.7-0.4-1.2-0.6c0,0-0.1,0-0.1-0.1c-0.1-0.1-0.2-0.1-0.3-0.2
		c-0.1,0-0.1-0.1-0.2-0.1c-0.8-0.5-1.6-1.2-2.3-2.1c-0.3-0.4-0.5-0.8-0.8-1.2c-0.1-0.2-0.1-0.3-0.2-0.5c-0.7-1.9-0.5-4.3,1.7-7.3
		c0,0,5.5-5.2,10.8-0.3c0.1,0.1,0.2,0.2,0.3,0.3c0.4,0.4,0.8,0.9,1.2,1.4c0,0,0.9-4.2,4.2-6c0.1,0,0.1-0.1,0.2-0.1
		c1-0.5,2.3-0.9,3.8-0.8c0.5,0,0.9,0.1,1.3,0.2c0.1,0,0.2,0,0.3,0.1c5.5,1.5,7.6,9,2.2,13.3c-0.1,0.1-0.1,0.1-0.2,0.2
		c0,0,2.1,0.9,4,2.6c0.1,0.1,0.2,0.1,0.2,0.2c0.3,0.3,0.7,0.6,1,1c0.1,0.1,0.1,0.2,0.2,0.2c0.5,0.6,0.8,1.2,1.1,1.9
		c0,0.1,0.1,0.2,0.1,0.3c0,0,0,0,0,0.1C70.8,34.5,70.9,35.1,70.8,36z"/>
	<path class="st5" d="M68.7,33C68.7,33,68.7,33,68.7,33c0,0.7-0.1,1.4-0.3,2.3c-0.1,0.5-0.3,1.1-0.6,1.8c0,0,0,0.1,0,0.1
		c-0.1,0-0.2,0-0.4,0.1h0c-0.5,0.1-1,0.2-1.6,0.3c-1.1,0.2-2.3,0.4-3.7,0.5c-4.8,0.6-10.9,1-17.6,1.2v-0.1h-0.1
		c-3.4-4.2-1.2-6.8-0.5-7.5c0,0,0.1-0.1,0.1-0.1c0.1-0.1,0.1-0.1,0.1-0.1s0,0-0.2-0.1c-0.1,0-0.3-0.1-0.4-0.1
		c-0.4-0.1-0.8-0.2-1.3-0.4c0,0-0.1,0-0.1-0.1c-0.1-0.1-0.3-0.1-0.4-0.2c0,0-0.1,0-0.1-0.1c-0.9-0.5-1.8-1.1-2.4-2.1
		c-0.2-0.4-0.5-0.8-0.6-1.2c-0.1-0.2-0.1-0.4-0.2-0.7c-0.2-1-0.3-2.2,0-3.6c0,0,5.3-4.7,10.7-2.4c0.3,0.1,0.6,0.3,0.8,0.4
		c0.9,0.5,1.7,1.2,2.6,2.1c0,0,2.5-4.5,5.5-6.5c0,0,0,0,0,0c1.3-0.8,2.6-1.1,3.8-0.4c4.2,2.4,8.7,4.3,2.3,11.2c0,0,0.1,0,0.2,0
		c0.7,0.1,2.7,0.7,3.8,2.6c0.1,0.1,0.2,0.3,0.2,0.4c0.1,0.3,0.2,0.5,0.3,0.8c0,0.1,0,0.1,0.1,0.2C68.7,31.8,68.8,32.4,68.7,33z"/>
</g>
<path class="st5" d="M43.3,39.2L43.3,39.2z"/>
<g>
	<path class="st4" d="M40.3,39.1c0,0.1-0.1,0.1-0.1,0.2h-0.1c-9-0.1-16.9-0.6-22.5-1.4c-1.7-0.2-3.2-0.5-4.4-0.8
		c0,0,0.1-0.1,0.1-0.1c0,0,0.1-0.1,0.1-0.1c0.1-0.1,0.2-0.2,0.3-0.3c0.1-0.1,0.1-0.1,0.2-0.2c0.7-0.6,1.3-1,1.3-1s-0.1-0.1-0.2-0.3
		c0,0,0-0.1-0.1-0.1c-0.1-0.1-0.2-0.2-0.2-0.4c-0.2-0.4-0.6-1-0.9-1.7c0-0.1-0.1-0.2-0.1-0.3c-0.2-0.4-0.3-0.9-0.5-1.4
		c-0.3-1.1-0.4-2.3-0.2-3.5c0.1-0.4,0.3-0.9,0.5-1.3c0.7-1.5,2.2-2.9,4.9-3.9c0,0,7.9-1.5,9.4,6.3c0.1,0.5,0.2,1,0.2,1.5
		c0,0,0.9-0.9,2.4-1.7c0.1,0,0.2-0.1,0.3-0.1c0,0,0.1-0.1,0.1-0.1c0.6-0.3,1.3-0.6,2.1-0.7c0.6-0.1,1.3-0.2,2-0.2
		c0.9,0.1,1.8,0.3,2.8,0.8c0.3,0.2,0.6,0.4,0.9,0.6c0.7,0.5,1.2,1,1.7,1.6c0,0.1,0.1,0.1,0.2,0.2c0.1,0.2,0.2,0.3,0.3,0.5
		c0.4,0.7,0.7,1.4,0.8,2.2C41.9,35.3,41.5,37.4,40.3,39.1z"/>
	<path class="st5" d="M40.1,39.3c-11.6,0-21.6-0.9-26.8-2.3c-0.4-0.1-0.7-0.2-1.1-0.3c1-1.3,2.4-1.7,2.8-1.7c0.1,0,0.1,0,0.1,0
		s-0.2-0.2-0.4-0.4c-0.3-0.4-0.8-0.9-1.2-1.7c-0.7-1.3-1.3-3.2-0.6-5.2c0.3-1,0.9-2,1.9-3c0,0,9.4-1.5,11.5,6.5
		c0.1,0.4,0.2,0.8,0.3,1.2c0,0,1.4-0.8,3.3-1.4c2.5-0.9,5.7-1.6,7.5-0.2c0.3,0.3,0.6,0.6,0.8,1C39.8,34.4,41.5,37.1,40.1,39.3z"/>
</g>
<g>
	<path class="st4" d="M51.1,19.2c0,0-8.6-7.5,0.7-13.2c0,0,8.4-3.3,10.9,5.9c0,0,4.1-6.1,10.2-3.3c6,2.8,5.7,12-1.8,14
		c0,0,8.2,8,0.5,13.1s-11.4-4.6-11.4-4.6s-7.3,2.8-10.6-2.4S51.1,19.2,51.1,19.2z"/>
	<path class="st5" d="M48.8,8.8c0,0,9.8-3.5,13,5.4c0,0,8.3-6.7,11.3-2.8s6.5,7.3-2,11.3c0,0,7,3.8-1.1,11.2S60.1,31,60.1,31
		s-8.2,3.9-11.2-3.4s2.1-8.7,2.1-8.7S44.7,15,48.8,8.8z"/>
</g>
<g>
	<path class="st6" d="M57.7,23.2c0,0-3.3,5.6-8.9,3.8c0,0-0.1,0-0.1,0c-1-0.3-2-0.9-3.2-1.7c0,0,0.1,1.4-0.3,3.1
		c-0.2,0.7-0.4,1.5-0.8,2.2c-0.2,0.3-0.3,0.5-0.5,0.8c-0.1,0.1-0.1,0.1-0.2,0.2c-0.5,0.7-1.2,1.4-2.2,1.9c-0.6,0.3-1.2,0.6-1.9,0.8
		c0,0-0.1,0-0.1,0c-2.1,0.5-4.1,0-5.7-1c-0.8-0.5-1.5-1.2-2-2c-0.1-0.2-0.3-0.4-0.4-0.6c0,0,0-0.1-0.1-0.1c-0.3-0.6-0.6-1.3-0.7-2
		c0,0,0-0.1,0-0.1c-0.3-1.6-0.1-3.4,0.8-5.2c0-0.1,0.1-0.1,0.1-0.2c0.2-0.3,0.4-0.6,0.6-1c0,0-0.1,0-0.4,0c-0.6-0.1-1.9-0.3-3.3-0.9
		c0,0-0.1,0-0.1,0c-0.1,0-0.2-0.1-0.4-0.2c-2.9-1.3-6.1-3.8-4.4-8.9c0.3-0.9,0.7-1.7,1.1-2.3C25.3,9,25.9,8.5,26.5,8
		c0.7-0.4,1.4-0.7,2.1-0.8c3.3-0.6,6.8,1.5,6.8,1.5s0.1-0.1,0.2-0.3C36,8,36.6,7.2,37.5,6.3c1.8-1.7,4.6-3.5,8-2.3
		c2.3,0.8,3.5,2.2,4.1,3.7c0.1,0.3,0.2,0.5,0.3,0.8c0.6,2,0.4,3.9,0.4,3.9s0.1,0,0.3,0c0.1,0,0.3,0,0.4,0c0,0,0,0,0,0
		c1.2,0.2,3.7,0.7,5.4,2.2c0.4,0.3,0.8,0.8,1.1,1.2c0,0,0,0,0,0.1c0.1,0.2,0.2,0.4,0.3,0.6C58.7,18.1,58.8,20.2,57.7,23.2z"/>
	<path class="st7" d="M58.4,19.2c0,0-5.6,8.8-13.6,3.7c0,0-2.4,10.4-7.2,9.2S28,30.4,32.3,22c0,0-7.8,1.4-6-9.5s9.6-3.9,9.6-3.9
		s4-8.1,10.9-4.3s3.7,8.2,3.7,8.2S57.8,11.7,58.4,19.2z"/>
</g>
<g>
	<path class="st3" d="M140.8,82.4l-7.1-42h-8.2l-10.4,30.9l-10.3-30.9h-8.2l-7.7,44.3h8.2l4.9-28l9.3,28h7.4l9.4-28l4.8,28h8.2
		L140.8,82.4z"/>
	<path class="st3" d="M177.5,59.6c-1.5-2.6-3.7-4.8-6.4-6.3c-2.7-1.5-5.6-2.3-8.7-2.3c-4.3,0-8.1,1.5-11.4,4.5
		c-3.8,3.4-5.6,7.7-5.6,12.8c0,4.8,1.7,8.8,5,12.2c0.3,0.3,0.7,0.7,1,1c3.1,2.7,6.8,4,11,4c3.2,0,6.1-0.8,8.8-2.3
		c1.5-0.9,2.8-1.9,3.9-3.1c0.9-1,1.7-2,2.3-3.2c1.5-2.7,2.3-5.6,2.3-8.7C179.7,65.1,179,62.3,177.5,59.6z M168.9,75
		c-1.7,1.8-3.8,2.7-6.4,2.7s-4.7-0.9-6.4-2.7c-1.7-1.8-2.5-4.1-2.5-6.9c0-2.6,0.8-4.9,2.5-6.7c1.7-1.8,3.8-2.7,6.4-2.7
		s4.8,0.9,6.5,2.6s2.5,4,2.5,6.8S170.6,73.2,168.9,75z"/>
	<path class="st3" d="M207.9,51.9l-8.3,19.4l-8.3-19.4H183l11.3,26.5l2.7,6.3h5.3l3.3-7.6l10.7-25.2
		C216.3,51.9,207.9,51.9,207.9,51.9z"/>
	<path class="st3" d="M220.1,51.9v32.8h8.2V51.9H220.1z M228,39.9c-1-1-2.3-1.6-3.7-1.6c-1.4,0-2.7,0.5-3.7,1.5s-1.5,2.3-1.5,3.7
		c0,1.5,0.5,2.8,1.5,3.8c1,1.1,2.3,1.6,3.7,1.6c1.4,0,2.7-0.5,3.7-1.6c1-1,1.5-2.3,1.5-3.8C229.5,42.2,229,41,228,39.9z"/>
	<path class="st3" d="M268.7,69.1c0-1.8-0.2-3.5-0.5-5.1c-0.7-3.1-2.2-5.8-4.3-8c-3.2-3.3-7.4-5-12.6-5c-4.9,0-8.9,1.7-12.1,5
		s-4.8,7.5-4.8,12.5c0,1.3,0.1,2.6,0.3,3.7c0.6,3.3,2.1,6.1,4.5,8.5c3.2,3.3,7.4,4.9,12.6,4.9c3.3,0,6.2-0.6,8.6-1.8
		c2.4-1.2,4.5-3,6.2-5.4l-6.9-3.3c-2.2,2.1-4.8,3.2-7.9,3.2c-2.6,0-4.7-0.7-6.4-2.1c-1.7-1.4-2.7-3.2-3.1-5.6h26.4V69.1z
		 M242.6,64.2c0.9-2.1,1.9-3.5,3-4.3c1.7-1.3,3.8-1.9,6-1.9c2.1,0,4,0.6,5.6,1.7c1.6,1.2,2.7,2.6,3.2,4.5H242.6z"/>
	<path class="st3" d="M299.2,68c-0.7-1.6-1.9-3.2-3.6-5c-0.7-0.7-2.6-2.4-5.9-5.1c-0.3-0.2-0.5-0.5-0.8-0.7c-3-2.5-4.8-4.2-5.4-5
		c-0.5-0.7-0.8-1.4-0.8-2.1c0-0.7,0.3-1.4,1.1-2c0.7-0.6,1.6-0.9,2.7-0.9c2.3,0,4.5,1.5,6.7,4.6l6.3-5.5c-2.3-2.7-4.5-4.6-6.5-5.6
		s-4.1-1.5-6.3-1.5c-3.4,0-6.3,1.1-8.7,3.3c-2.3,2.2-3.5,4.8-3.5,7.9c0,2.1,0.7,4.3,2.1,6.4c0.7,1,1.7,2.2,3.1,3.6
		c1.6,1.6,3.7,3.4,6.2,5.5s4.2,3.6,4.9,4.6c0.8,1,1.1,2,1.1,3c0,1.1-0.5,2.1-1.5,2.9s-2.2,1.3-3.7,1.3c-2.8,0-5.2-2-7.4-5.9
		l-7.1,4.3c1.7,3.3,3.7,5.8,6,7.3s5.1,2.3,8.3,2.3c4,0,7.3-1.2,9.8-3.5c2.5-2.4,3.8-5.4,3.8-9C300.3,71.3,299.9,69.6,299.2,68z"/>
	<path class="st3" d="M346.4,78.2c3.9-4.4,5.9-9.5,5.9-15.5c0-6.5-2.3-12.1-6.8-16.6c-4.2-4.3-9.2-6.5-15-6.8h-1.2
		c-4.1,0-8,1-11.6,3.1c-2.9,1.7-5.3,3.8-7.2,6.5c-0.5,0.6-0.9,1.3-1.3,2c-2,3.5-3.1,7.4-3.1,11.7c0,6.3,2.2,11.8,6.6,16.4
		c4.4,4.6,9.9,6.9,16.6,6.9c4,0,7.6-0.9,10.8-2.7l3.9,5h10L346.4,78.2z M341.1,71.4l-4-5.2H327l7.9,10.2c-1.8,0.8-3.7,1.2-5.7,1.2
		c-3.5,0-6.6-1.1-9.4-3.4c-3.5-2.8-5.3-6.7-5.3-11.6c0-4.4,1.4-8,4.2-10.9c2.8-2.9,6.3-4.3,10.4-4.3c4,0,7.5,1.5,10.3,4.4
		c2.8,2.9,4.3,6.5,4.3,10.7C343.8,65.8,342.9,68.7,341.1,71.4z"/>
	<path class="st3" d="M368.6,76.6V40.3h-8.4v44.3h20.7v-8H368.6z"/>
</g>
<path class="st8" d="M294.8,3.3L294.8,3.3z"/>
<path class="st8" d="M367.3,15.8L367.3,15.8z"/>
<path class="st9" d="M140.8,82.4l0.4,2.3h-5.3C133.5,83.8,134.9,83.1,140.8,82.4z"/>
<path class="st9" d="M162.5,80.8c4.3-0.2,8.5-0.4,12.6-0.7c-1.1,1.2-2.4,2.3-3.9,3.1c-2.7,1.5-5.6,2.3-8.8,2.3c-4.2,0-7.9-1.3-11-4
	C154.6,81.2,158.3,81,162.5,80.8z"/>
<path class="st9" d="M194.3,78.4c3.8-0.4,7.6-0.9,11.3-1.4l-3.3,7.6H197L194.3,78.4z"/>
<path class="st9" d="M220.1,74.8c2.8-0.5,5.5-1,8.2-1.5v11.3h-8.2V74.8z"/>
<path class="st9" d="M268.2,64c0.4,1.6,0.5,3.3,0.5,5.1v1.6h-26.4c0.4,2.3,1.4,4.2,3.1,5.6c1.7,1.4,3.8,2.1,6.4,2.1
	c3.1,0,5.7-1.1,7.9-3.2l6.9,3.3c-1.7,2.4-3.8,4.3-6.2,5.4c-2.4,1.2-5.3,1.8-8.6,1.8c-5.2,0-9.3-1.6-12.6-4.9
	c-2.4-2.4-3.9-5.2-4.5-8.5C246.8,69.7,257.9,66.9,268.2,64z"/>
<path class="st9" d="M299.2,68c0.7,1.6,1.1,3.3,1.1,5.2c0,3.6-1.3,6.6-3.8,9s-5.8,3.5-9.8,3.5c-3.2,0-5.9-0.8-8.3-2.3
	c-2.3-1.5-4.3-4-6-7.3l7.1-4.3c2.1,3.9,4.6,5.9,7.4,5.9c1.5,0,2.7-0.4,3.7-1.3c1-0.8,1.5-1.8,1.5-2.9c0-1-0.4-2-1.1-3
	s-2.4-2.5-4.9-4.6c-2.6-2.1-4.6-3.9-6.2-5.5c3.2-1,6.2-2.1,9.2-3.1c0.3,0.2,0.5,0.5,0.8,0.7c3.2,2.7,5.2,4.4,5.9,5.1
	C297.3,64.8,298.5,66.4,299.2,68z"/>
<path class="st9" d="M346.4,78.2c3.9-4.4,5.9-9.5,5.9-15.5c0-6.5-2.3-12.1-6.8-16.6c-4.2-4.3-9.2-6.5-15-6.8
	c-5.6,3-12.3,6.2-19.9,9.6c-0.5,0.6-0.9,1.3-1.3,2c-2,3.5-3.1,7.4-3.1,11.7c0,6.3,2.2,11.8,6.6,16.4s9.9,6.9,16.6,6.9
	c4,0,7.6-0.9,10.8-2.7l3.9,5h10L346.4,78.2z M341.1,71.4l-4-5.2H327l7.9,10.2c-1.8,0.8-3.7,1.2-5.7,1.2c-3.5,0-6.6-1.1-9.4-3.4
	c-3.5-2.8-5.3-6.7-5.3-11.6c0-4.4,1.4-8,4.2-10.9c2.8-2.9,6.3-4.3,10.4-4.3c4,0,7.5,1.5,10.3,4.4s4.3,6.5,4.3,10.7
	C343.8,65.8,342.9,68.7,341.1,71.4z"/>
<polygon class="st9" points="380.9,76.6 380.9,84.6 360.2,84.6 360.2,40.3 368.6,40.3 368.6,76.6 "/>
</svg>
